<svg width="251" height="150" viewBox="0 0 251 150" fill="none" xmlns="http://www.w3.org/2000/svg">
<path d="M70.6886 54.4772C70.6886 57.564 71.0223 60.0667 71.6063 61.9021C72.2737 63.7375 73.108 65.7397 74.2759 67.9088C74.6931 68.5762 74.8599 69.2436 74.8599 69.8276C74.8599 70.6619 74.3594 71.4961 73.2748 72.3304L68.019 75.8343C67.2681 76.3348 66.5173 76.5851 65.8499 76.5851C65.0156 76.5851 64.1814 76.168 63.3471 75.4171C62.1792 74.1657 61.178 72.8309 60.3438 71.4961C59.5095 70.0779 58.6753 68.4928 57.7576 66.574C51.2503 74.2492 43.0746 78.0868 33.2303 78.0868C26.2225 78.0868 20.633 76.0845 16.5451 72.0801C12.4572 68.0756 10.3716 62.7364 10.3716 56.0623C10.3716 48.9711 12.8744 43.2147 17.9634 38.8765C23.0523 34.5384 29.8098 32.3693 38.4027 32.3693C41.2392 32.3693 44.1591 32.6196 47.2459 33.0367C50.3327 33.4538 53.5028 34.1213 56.8399 34.8721V28.782C56.8399 22.4416 55.5051 18.02 52.9189 15.4338C50.2492 12.8476 45.7442 11.5962 39.3204 11.5962C36.4005 11.5962 33.3972 11.9299 30.3104 12.6808C27.2236 13.4316 24.2203 14.3493 21.3004 15.5172C19.9656 16.1012 18.9645 16.4349 18.3805 16.6018C17.7965 16.7686 17.3794 16.8521 17.0457 16.8521C15.8777 16.8521 15.2937 16.0178 15.2937 14.2659V10.178C15.2937 8.84316 15.4606 7.84205 15.8777 7.25806C16.2948 6.67408 17.0457 6.0901 18.2136 5.50612C21.1335 4.00445 24.6374 2.75306 28.7253 1.75195C32.8132 0.667408 37.1513 0.166852 41.7398 0.166852C51.6675 0.166852 58.9255 2.41935 63.5974 6.92436C68.1858 11.4294 70.5218 18.2703 70.5218 27.4472V54.4772H70.6886ZM36.8176 67.158C39.5707 67.158 42.4072 66.6574 45.4105 65.6563C48.4139 64.6552 51.0835 62.8198 53.336 60.317C54.6708 58.7319 55.6719 56.98 56.1725 54.9778C56.673 52.9755 57.0067 50.5562 57.0067 47.7197V44.2158C54.5874 43.6318 52.0012 43.1313 49.3315 42.7976C46.6619 42.4639 44.0757 42.297 41.4895 42.297C35.9 42.297 31.8121 43.3815 29.059 45.634C26.306 47.8865 24.9711 51.0567 24.9711 55.228C24.9711 59.1491 25.9723 62.069 28.0579 64.0712C30.0601 66.1568 32.98 67.158 36.8176 67.158ZM103.809 76.168C102.307 76.168 101.306 75.9177 100.639 75.3337C99.9712 74.8332 99.3872 73.6652 98.8866 72.0801L79.2815 7.59177C78.7809 5.92325 78.5307 4.83871 78.5307 4.25473C78.5307 2.91991 79.1981 2.16908 80.5329 2.16908H88.7086C90.2937 2.16908 91.3783 2.41935 91.9623 3.00334C92.6297 3.50389 93.1302 4.67186 93.6308 6.25695L107.646 61.485L120.661 6.25695C121.078 4.58843 121.578 3.50389 122.246 3.00334C122.913 2.50278 124.081 2.16908 125.583 2.16908H132.257C133.842 2.16908 134.927 2.41935 135.594 3.00334C136.261 3.50389 136.845 4.67186 137.179 6.25695L150.36 62.1524L164.793 6.25695C165.294 4.58843 165.878 3.50389 166.462 3.00334C167.129 2.50278 168.214 2.16908 169.715 2.16908H177.474C178.809 2.16908 179.56 2.83649 179.56 4.25473C179.56 4.67186 179.476 5.08899 179.393 5.58954C179.309 6.0901 179.142 6.75751 178.809 7.6752L158.703 72.1635C158.203 73.832 157.619 74.9166 156.951 75.4171C156.284 75.9177 155.199 76.2514 153.781 76.2514H146.606C145.021 76.2514 143.937 76.0011 143.269 75.4171C142.602 74.8332 142.018 73.7486 141.684 72.0801L128.753 18.2703L115.906 71.9967C115.488 73.6652 114.988 74.7497 114.32 75.3337C113.653 75.9177 112.485 76.168 110.983 76.168H103.809ZM211.011 78.4205C206.673 78.4205 202.335 77.9199 198.164 76.9188C193.992 75.9177 190.739 74.8332 188.57 73.5818C187.235 72.8309 186.317 71.9967 185.983 71.2458C185.65 70.495 185.483 69.6607 185.483 68.9099V64.6552C185.483 62.9032 186.15 62.069 187.402 62.069C187.902 62.069 188.403 62.1524 188.903 62.3193C189.404 62.4861 190.155 62.8198 190.989 63.1535C193.825 64.4049 196.912 65.406 200.166 66.0734C203.503 66.7408 206.756 67.0745 210.094 67.0745C215.349 67.0745 219.437 66.1568 222.274 64.3215C225.11 62.4861 226.612 59.8165 226.612 56.396C226.612 54.0601 225.861 52.1413 224.359 50.5562C222.858 48.9711 220.021 47.5528 215.933 46.218L203.837 42.4639C197.746 40.5451 193.241 37.7086 190.488 33.9544C187.735 30.2837 186.317 26.1958 186.317 21.8576C186.317 18.3537 187.068 15.267 188.57 12.5973C190.071 9.9277 192.073 7.59177 194.576 5.7564C197.079 3.8376 199.916 2.41935 203.253 1.41824C206.59 0.41713 210.094 0 213.764 0C215.6 0 217.518 0.083426 219.354 0.333704C221.273 0.583982 223.025 0.917686 224.777 1.25139C226.445 1.66852 228.03 2.08565 229.532 2.58621C231.033 3.08676 232.201 3.58732 233.036 4.08788C234.204 4.75528 235.038 5.42269 235.538 6.17353C236.039 6.84093 236.289 7.75862 236.289 8.92659V12.8476C236.289 14.5996 235.622 15.5172 234.371 15.5172C233.703 15.5172 232.619 15.1835 231.2 14.5161C226.445 12.3471 221.106 11.2625 215.183 11.2625C210.427 11.2625 206.673 12.0133 204.087 13.5984C201.501 15.1835 200.166 17.6029 200.166 21.0234C200.166 23.3593 201 25.3615 202.669 26.9466C204.337 28.5317 207.424 30.1168 211.845 31.535L223.692 35.2892C229.699 37.208 234.037 39.8776 236.623 43.2981C239.209 46.7186 240.461 50.6396 240.461 54.9778C240.461 58.5651 239.71 61.8187 238.292 64.6552C236.79 67.4917 234.788 69.9944 232.201 71.9967C229.615 74.0823 226.528 75.584 222.941 76.6685C219.187 77.8365 215.266 78.4205 211.011 78.4205Z" fill="white"/>
<path fill-rule="evenodd" clip-rule="evenodd" d="M226.779 118.965C199.332 139.238 159.454 150 125.166 150C77.1124 150 33.8143 132.23 1.11125 102.697C-1.47496 100.361 0.860971 97.1913 3.94773 99.0267C39.3204 119.549 82.9522 131.98 128.086 131.98C158.536 131.98 191.99 125.64 222.774 112.625C227.363 110.539 231.284 115.628 226.779 118.965Z" fill="white"/>
<path fill-rule="evenodd" clip-rule="evenodd" d="M238.208 105.951C234.704 101.446 215.016 103.782 206.089 104.867C203.42 105.2 203.003 102.864 205.422 101.112C221.106 90.1002 246.885 93.2704 249.888 96.9411C252.891 100.695 249.054 126.474 234.371 138.821C232.118 140.74 229.949 139.739 230.95 137.236C234.287 128.977 241.712 110.373 238.208 105.951Z" fill="white"/>
</svg>
