<svg width="150" height="150" viewBox="0 0 150 150" fill="none" xmlns="http://www.w3.org/2000/svg">
<g clip-path="url(#clip0_51_102)">
<path d="M150 0H0V150H150V0Z" fill="white"/>
<path d="M100.762 117.188C103.783 122.121 107.714 125.748 114.667 125.748C120.507 125.748 124.238 122.829 124.238 118.795C124.238 113.962 120.405 112.25 113.976 109.438L110.452 107.926C100.281 103.593 93.5237 98.1643 93.5237 86.6881C93.5237 76.1167 101.578 68.0691 114.167 68.0691C123.128 68.0691 129.571 71.1881 134.214 79.3548L123.238 86.4024C120.821 82.0691 118.214 80.3619 114.167 80.3619C110.038 80.3619 107.421 82.981 107.421 86.4024C107.421 90.631 110.04 92.3429 116.088 94.9619L119.612 96.4715C131.588 101.607 138.35 106.843 138.35 118.614C138.35 131.305 128.381 138.257 114.993 138.257C101.902 138.257 93.4451 132.019 89.307 123.843L100.762 117.188ZM50.9689 118.41C53.1832 122.338 55.1975 125.66 60.0404 125.66C64.6713 125.66 67.5927 123.848 67.5927 116.802V68.8738H81.688V116.993C81.688 131.588 73.1308 138.231 60.6404 138.231C49.3546 138.231 42.8189 132.391 39.4951 125.356L50.9689 118.41Z" fill="#1D4C69"/>
</g>
<defs>
<clipPath id="clip0_51_102">
<rect width="150" height="150" fill="white"/>
</clipPath>
</defs>
</svg>
