<svg width="318" height="90" viewBox="0 0 318 90" fill="none" xmlns="http://www.w3.org/2000/svg">
<path fill-rule="evenodd" clip-rule="evenodd" d="M132.56 0.00238007C130.479 0.0709652 131.081 1.00829 126.578 2.1209C122.028 3.24112 116.526 2.55527 111.634 4.61282C98.8312 9.9777 96.7583 30.7209 81.5096 38.7454C71.5114 44.3922 61.3151 45.6877 52.2009 48.5454C44.8852 51.4793 40.3356 53.4226 34.9707 58.0483C30.8099 61.6375 29.7963 65.1201 25.445 69.6239C21.0327 75.6213 4.30562 70.2945 0 77.816C2.27093 79.2868 3.58162 79.6907 7.56717 79.1648C6.74415 80.7271 1.50123 82.7846 2.4538 85.086C2.4538 85.086 15.1268 87.3951 25.8109 80.9481C30.7947 78.921 35.4661 74.6306 43.2086 73.6018C53.2373 72.2682 64.5386 75.7051 76.6629 76.6729C74.1557 81.6263 71.5723 84.5526 68.8061 88.6372C67.9525 89.5593 69.5377 90.3747 72.4792 89.8184C77.7679 88.5077 81.601 87.0902 85.4037 84.4611C90.3647 81.0395 92.4985 77.9075 96.6822 72.9465C100.317 78.7762 113.135 80.0565 115.764 75.0193C110.872 72.9465 109.828 62.1634 111.504 57.5072C113.485 53.072 114.91 46.8003 116.511 40.9706C117.951 35.72 118.843 27.7108 120.565 23.6109C122.623 18.5127 126.623 16.92 129.626 14.2147C132.628 11.5094 135.616 9.25375 135.524 3.06585C135.494 1.05402 134.457 -0.0585845 132.56 0.00238007Z" fill="#EEEEEE"/>
<path d="M3.77247 84.0344C11.6293 84.2706 13.763 84.0649 19.9738 81.3672C25.2549 79.0734 32.3191 72.8931 38.5604 70.8965C47.7203 67.955 57.5432 68.397 67.2899 69.5477C70.5515 69.9363 73.8284 70.4774 76.1679 70.2259C79.8181 67.9855 79.9934 61.9043 82.2567 61.4165C81.6394 73.1827 76.5946 80.7118 71.5498 87.5399C82.1805 85.6652 89.2829 79.0277 93.5809 70.8127C94.884 68.3208 97.0482 64.2438 98.0389 61.4394C98.8238 63.2988 97.0177 64.48 97.8636 66.5071C104.707 60.8602 107.938 54.4285 110.712 45.0095C113.928 34.112 117.227 24.7464 119.3 21.5229C121.32 18.3756 124.467 16.4323 127.34 14.4205C130.602 12.1267 133.52 9.74146 134.023 5.37487C130.579 5.05481 129.786 4.26227 129.276 2.52478C127.553 3.49259 125.968 3.70597 124.177 3.75931C122.623 3.80504 120.916 3.73645 118.828 3.94983C101.582 5.7178 100.782 22.5745 88.2465 34.9503C87.4387 35.7352 86.0594 36.8936 85.1449 37.5794C81.2737 40.4676 77.1281 42.0527 72.7615 43.7216C65.6896 46.4193 58.9835 47.2042 52.3536 49.5361C47.4841 51.2431 42.9575 53.2016 38.9567 55.9373C37.9584 56.6232 36.6018 57.8425 35.7331 58.5512C33.386 60.4716 31.8466 62.5977 30.353 64.7925C28.8137 67.0481 27.3352 69.3724 25.0719 71.59C21.4064 75.1869 7.7199 72.6416 2.89608 75.9794C2.36264 76.3529 1.92825 76.7949 1.63867 77.3283C4.26777 78.5247 6.0282 77.7931 9.05356 78.1208C9.42697 81.009 2.78942 82.716 3.77247 84.0344Z" fill="white"/>
<path fill-rule="evenodd" clip-rule="evenodd" d="M113.508 11.0675C115.947 13.186 121.068 11.4866 120.153 7.27246C116.358 6.9524 114.164 8.24027 113.508 11.0675Z" fill="#EEEEEE"/>
<path d="M130.274 6.13708C129.626 7.50116 128.384 9.25389 128.384 12.7213C128.376 13.3157 127.934 13.7272 127.927 12.8051C127.957 9.41393 128.856 7.95078 129.809 6.03039C130.243 5.24548 130.51 5.56554 130.274 6.13708Z" fill="#EEEEEE"/>
<path d="M129.512 5.62638C128.742 6.92188 126.898 9.29188 126.601 12.7516C126.548 13.346 126.06 13.7118 126.136 12.7973C126.471 9.42904 127.942 7.31815 129.062 5.48159C129.565 4.73478 129.802 5.0777 129.512 5.62638Z" fill="#EEEEEE"/>
<path d="M128.75 4.94821C127.873 6.17512 125.039 9.02521 124.444 12.4392C124.338 13.026 123.827 13.3461 123.979 12.4468C124.597 9.11666 127.043 6.49518 128.308 4.76531C128.872 4.0566 129.085 4.42239 128.75 4.94821Z" fill="#EEEEEE"/>
<path d="M128.75 4.18613C127.713 5.28349 124.33 8.91089 123.263 12.2106C123.072 12.7745 122.524 13.026 122.798 12.1496C123.873 8.93375 126.837 5.47401 128.338 3.94227C129.001 3.32501 129.154 3.72128 128.75 4.18613Z" fill="#EEEEEE"/>
<path d="M261.065 37.4652V61.2566H258.063V57.1796C255.342 60.4336 252.241 62.0644 248.743 62.0644C245.245 62.0644 242.288 60.8223 239.873 58.3456C237.48 55.8384 236.291 52.8664 236.291 49.4295C236.291 45.9622 237.503 43.0054 239.918 40.5592C242.334 38.0825 245.238 36.8403 248.613 36.8403C252.5 36.8403 255.647 38.5016 258.071 41.8166V37.4728H261.065M258.246 49.4676C258.246 46.7471 257.331 44.4609 255.51 42.6091C253.689 40.7268 251.448 39.7895 248.789 39.7895C246.16 39.7895 243.934 40.7573 242.113 42.7006C240.292 44.6133 239.377 46.8842 239.377 49.5133C239.377 52.1424 240.307 54.4286 242.159 56.3719C244.011 58.2846 246.221 59.2372 248.789 59.2372C251.387 59.2372 253.613 58.3075 255.464 56.4557C257.324 54.6115 258.246 52.2796 258.246 49.4676Z" fill="white"/>
<path d="M267.124 61.2565V29.0901H273.799C278.372 29.0901 281.717 29.433 283.835 30.1189C285.984 30.7742 287.836 31.8335 289.391 33.2966C290.945 34.7293 292.142 36.4897 292.973 38.5853C293.811 40.6734 294.23 43.1272 294.23 45.9315C294.23 48.7131 293.575 51.3345 292.256 53.8188C290.968 56.265 289.208 58.1168 286.968 59.3742C284.758 60.6316 281.565 61.2565 277.381 61.2565H267.124ZM270.217 58.2083H273.936C277.823 58.2083 280.627 58.0178 282.357 57.6291C284.117 57.2405 285.657 56.4784 286.975 55.343C288.286 54.177 289.292 52.7748 289.978 51.1288C290.663 49.4827 291.006 47.6081 291.006 45.4819C291.006 43.3634 290.603 41.4049 289.795 39.6141C289.017 37.8233 287.897 36.3449 286.434 35.1789C284.971 34.013 283.241 33.2357 281.237 32.847C279.263 32.4279 276.352 32.2221 272.504 32.2221H270.217V58.2083Z" fill="white"/>
<path d="M227.192 30.8351C227.192 30.1493 227.428 29.5472 227.908 29.0443C228.419 28.5337 229.013 28.2822 229.699 28.2822C230.415 28.2822 231.01 28.5337 231.49 29.0443C232 29.5244 232.252 30.1188 232.252 30.8351C232.252 31.521 232 32.123 231.49 32.626C231.01 33.106 230.415 33.3423 229.699 33.3423C229.013 33.3423 228.411 33.0908 227.908 32.5802C227.428 32.0696 227.192 31.4905 227.192 30.8351ZM228.175 37.465H231.269V61.2564H228.175V37.465Z" fill="white"/>
<path d="M143.51 61.2566L148.083 29.0901H148.578L161.655 55.4726L174.648 29.0825H175.143L179.761 61.2489H176.584L173.444 38.2196L162.066 61.2489H161.259L149.744 38.0443L146.604 61.2489H143.51" fill="white"/>
<path d="M207.638 37.4652V61.2566H204.635V57.1796C201.915 60.4336 198.813 62.0644 195.315 62.0644C191.817 62.0644 188.861 60.8223 186.445 58.3456C184.052 55.8384 182.863 52.8664 182.863 49.4295C182.863 45.9622 184.075 43.0054 186.491 40.5592C188.906 38.0825 191.81 36.8403 195.186 36.8403C199.072 36.8403 202.22 38.5016 204.643 41.8166V37.4728H207.638M204.818 49.4676C204.818 46.7471 203.904 44.4609 202.082 42.6091C200.261 40.7268 198.021 39.7895 195.361 39.7895C192.732 39.7895 190.507 40.7573 188.685 42.7006C186.864 44.6133 185.95 46.8842 185.95 49.5133C185.95 52.1424 186.872 54.4286 188.731 56.3719C190.583 58.2846 192.793 59.2372 195.361 59.2372C197.96 59.2372 200.185 58.3075 202.037 56.4557C203.888 54.6115 204.818 52.2796 204.818 49.4676Z" fill="white"/>
<path d="M212.85 37.4652H215.989V40.9173C216.828 39.5152 217.635 38.4864 218.405 37.8234C219.213 37.168 220.089 36.8403 221.049 36.8403C222.032 36.8403 223.023 37.1071 224.006 37.6481L222.391 40.2467C221.941 39.98 221.476 39.8428 221.004 39.8428C220.082 39.8428 219.198 40.3229 218.359 41.2755C217.551 42.2281 216.957 43.4702 216.568 44.9943C216.18 46.488 215.989 49.2238 215.989 53.1941V61.2566H212.85V37.4652Z" fill="white"/>
<path d="M297.911 29.0825H304.274C307.65 29.0825 310.203 29.7684 311.933 31.1401C313.693 32.4813 314.577 34.4245 314.577 36.9622C314.577 38.3644 314.219 39.6675 313.502 40.8563C312.816 42.0222 311.803 42.9596 310.454 43.6759C312.664 44.3922 314.341 45.4667 315.468 46.8994C316.634 48.3321 317.214 50.0391 317.214 52.0052C317.214 54.6648 316.246 56.8747 314.302 58.6351C312.359 60.365 309.852 61.2337 306.773 61.2337H297.911V29.0825ZM301.088 32.2222V42.5252H302.925C305.729 42.5252 307.825 42.0756 309.197 41.184C310.568 40.2848 311.254 38.8826 311.254 36.9698C311.254 33.8073 309.105 32.2222 304.8 32.2222H301.088ZM301.088 45.7563V58.1169H305.074C307.375 58.1169 309.06 57.8959 310.134 57.4463C311.239 56.9662 312.138 56.2499 312.824 55.2973C313.51 54.3142 313.853 53.3083 313.853 52.2948C313.853 51.2812 313.662 50.382 313.274 49.6047C312.885 48.8274 312.306 48.1416 311.529 47.5472C310.782 46.9528 309.867 46.5031 308.793 46.2059C307.749 45.9087 305.775 45.7563 302.879 45.7563H301.088Z" fill="white"/>
</svg>
