<svg width="334" height="90" viewBox="0 0 334 90" fill="none" xmlns="http://www.w3.org/2000/svg">
<path d="M40.3318 36.102C35.7388 15.84 26.1658 10.446 23.7238 6.63298C22.7169 4.95326 21.8248 3.20727 21.0538 1.40698C20.9248 3.20698 20.6878 4.34098 19.1578 5.70598C16.0858 8.44498 3.03882 19.077 1.94082 42.099C0.917824 63.564 17.7208 76.8 19.9408 78.168C21.6478 79.008 23.7268 78.186 24.7408 77.415C32.8408 71.856 43.9078 57.036 40.3408 36.102" fill="white"/>
<path d="M21.7502 66.738C21.3272 72.051 21.0242 75.138 19.9502 78.174C19.9502 78.174 20.6552 83.232 21.1502 88.59H22.9022C23.3201 84.817 23.9582 81.0716 24.8132 77.373C22.5452 76.257 21.8372 71.4 21.7502 66.738Z" fill="white"/>
<path d="M24.8102 77.376C22.5182 76.317 21.8552 71.358 21.7532 66.738C22.3201 59.117 22.4853 51.4714 22.2482 43.833C22.1282 39.825 22.3052 6.71104 21.2612 1.86304C21.9754 3.50501 22.7982 5.09754 23.7242 6.63004C26.1662 10.446 35.7422 15.84 40.3322 36.102C43.9082 57 32.9012 71.781 24.8102 77.376Z" fill="white"/>
<path d="M326.91 70.0499C325.929 70.0499 324.969 69.7596 324.152 69.2157C323.335 68.6718 322.698 67.8986 322.319 66.9932C321.94 66.0877 321.838 65.0906 322.024 64.1271C322.211 63.1636 322.678 62.2767 323.367 61.578C324.056 60.8793 324.937 60.3999 325.898 60.2001C326.858 60.0004 327.857 60.0892 328.767 60.4553C329.678 60.8214 330.46 61.4486 331.015 62.2579C331.57 63.0673 331.874 64.0226 331.887 65.0039C331.905 65.6656 331.789 66.3241 331.546 66.9398C331.303 67.5555 330.938 68.1158 330.473 68.5871C330.009 69.0583 329.453 69.4308 328.841 69.6822C328.229 69.9336 327.572 70.0587 326.91 70.0499ZM326.91 60.5459C326.013 60.54 325.135 60.8003 324.387 61.2939C323.638 61.7876 323.053 62.4922 322.705 63.3187C322.357 64.1453 322.262 65.0564 322.433 65.9368C322.603 66.8171 323.031 67.6271 323.662 68.2641C324.293 68.9011 325.099 69.3365 325.978 69.5151C326.857 69.6937 327.769 69.6075 328.598 69.2673C329.428 68.9272 330.138 68.3485 330.639 67.6045C331.139 66.8605 331.408 65.9847 331.41 65.0879C331.422 64.4918 331.314 63.8994 331.092 63.3458C330.871 62.7923 330.54 62.2888 330.121 61.8652C329.701 61.4417 329.201 61.1066 328.649 60.88C328.098 60.6534 327.506 60.5398 326.91 60.5459ZM328.11 68.2199L326.826 65.4509H325.791V68.2199H325.038V61.9199H326.895C328.278 61.9199 328.854 62.5199 328.854 63.6809C328.854 64.6049 328.419 65.1809 327.609 65.3579L328.935 68.2109L328.11 68.2199ZM325.821 64.7999H326.91C327.792 64.7999 328.128 64.4999 328.128 63.6959C328.128 62.8919 327.807 62.6189 326.814 62.6189H325.821V64.7999Z" fill="white"/>
<path d="M252.837 65.5141C254.184 66.5911 256.875 67.035 259.248 67.035C262.323 67.035 265.338 66.465 268.284 63.804C271.284 61.077 273.348 56.9041 273.348 50.2411C273.348 43.8391 270.912 38.6431 265.914 35.6011C263.094 33.8281 259.44 33.1291 255.273 33.1291C254.073 33.1291 252.837 33.1921 252.135 33.5101C251.847 33.7372 251.644 34.054 251.556 34.4101C251.43 35.5501 251.43 44.2321 251.43 49.3651C251.43 54.6271 251.43 61.9651 251.556 62.8651C251.622 63.6271 252.006 64.9651 252.837 65.526M240.045 30.2791C241.134 30.2791 245.274 30.4681 247.2 30.4681C250.8 30.4681 253.287 30.2791 260.016 30.2791C265.656 30.2791 270.402 31.8001 273.795 34.7131C277.899 38.2651 280.095 43.2061 280.095 49.2271C280.095 57.7831 276.195 62.7271 272.274 65.5141C268.374 68.4301 263.301 70.0771 256.074 70.0771C252.228 70.0771 245.625 69.9511 240.114 69.8881H240C239.742 69.3811 240.471 67.404 240.921 67.353C242.421 67.185 242.817 67.1251 243.507 66.8401C244.671 66.3631 244.944 65.769 245.073 63.678C245.265 59.748 245.202 55.0591 245.202 49.7341C245.202 45.9331 245.265 38.5171 245.139 36.1711C244.944 34.2091 244.116 33.7021 242.439 33.3211C241.25 33.0684 240.048 32.8782 238.839 32.7511C238.713 32.3701 239.697 30.6511 240.018 30.2791" fill="white"/>
<path d="M295.98 33.495C295.725 33.558 295.404 34.194 295.404 34.509C295.338 36.792 295.275 42.747 295.275 46.866C295.291 46.9447 295.33 47.0169 295.387 47.0735C295.444 47.1301 295.517 47.1685 295.596 47.184C296.427 47.247 298.479 47.313 300.21 47.313C302.646 47.313 304.056 46.995 304.824 46.614C306.876 45.6 307.824 43.38 307.824 40.974C307.824 35.46 303.978 33.369 298.275 33.369C297.504 33.3593 296.733 33.4014 295.968 33.495M310.518 58.845C310.518 53.268 306.414 50.1 298.914 50.1C298.596 50.1 296.214 50.037 295.647 50.163C295.455 50.226 295.263 50.352 295.263 50.481C295.263 54.474 295.197 60.873 295.392 63.408C295.521 64.485 296.292 66.006 297.249 66.45C298.275 67.02 300.582 67.146 302.184 67.146C306.606 67.146 310.518 64.677 310.518 58.845ZM284.4 30.39C284.979 30.39 286.683 30.579 291.042 30.579C295.143 30.579 298.476 30.453 302.442 30.453C307.377 30.453 314.169 32.229 314.169 39.579C314.169 43.179 311.607 46.107 308.274 47.502C308.082 47.565 308.082 47.691 308.274 47.754C313.017 48.954 317.181 51.873 317.181 57.45C317.181 62.901 313.785 66.324 308.85 68.478C305.85 69.81 302.121 70.251 298.35 70.251C295.467 70.251 287.739 69.951 283.443 69.999C282.993 69.81 283.854 67.779 284.238 67.464C285.222 67.4338 286.199 67.2806 287.145 67.008C288.681 66.63 288.864 66.135 289.056 63.852C289.185 61.887 289.185 54.852 289.185 49.845C289.185 42.999 289.251 38.376 289.185 36.093C289.122 34.32 288.48 33.747 287.262 33.432C286.302 33.24 284.7 33.051 283.419 32.862C283.098 32.544 284.085 30.642 284.403 30.39" fill="white"/>
<path d="M54.5249 70.05C54.3598 69.6444 54.293 69.2054 54.3299 68.769C54.3155 68.4716 54.3829 68.1758 54.5249 67.914C55.3538 67.7945 56.1752 67.6272 56.9849 67.413C58.1189 67.131 58.5449 66.513 58.6109 65.067C58.7969 61.65 58.8089 55.239 58.7429 50.733V50.601C58.7429 50.115 58.7429 49.455 58.1429 48.99C57.0883 48.3284 55.9434 47.8232 54.7439 47.49C54.2069 47.331 53.9099 47.049 53.9249 46.719C53.9399 46.389 54.2789 45.999 54.9779 45.861C56.8349 45.672 61.7009 44.511 63.6119 43.629C63.8086 43.8855 63.8999 44.2075 63.8669 44.529C63.8669 44.727 63.8369 44.937 63.8159 45.153C63.7619 45.789 63.7019 46.512 63.7019 47.232C63.7136 47.3195 63.7495 47.4019 63.8056 47.4701C63.8617 47.5382 63.9357 47.5894 64.0192 47.6177C64.1028 47.6461 64.1926 47.6506 64.2786 47.6307C64.3646 47.6108 64.4433 47.5673 64.5059 47.505C68.1449 44.652 71.4059 43.635 73.0769 43.635C75.8279 43.635 77.9699 44.949 79.6289 47.655C79.6669 47.7204 79.7211 47.7748 79.7862 47.8132C79.8514 47.8515 79.9253 47.8725 80.0009 47.874C80.0696 47.8734 80.1371 47.8561 80.1977 47.8238C80.2583 47.7914 80.3102 47.7448 80.3489 47.688C83.6939 45.15 87.0089 43.635 89.2289 43.635C94.4729 43.635 97.6079 47.562 97.6079 54.135C97.6079 56.025 97.5899 58.422 97.5719 60.657C97.5569 62.619 97.5419 64.458 97.5419 65.73C97.5419 66.03 97.9559 66.894 98.5769 67.065C99.3449 67.44 100.452 67.632 101.853 67.872H101.907C102.012 68.25 101.79 69.717 101.577 70.017C101.229 70.017 100.749 69.987 100.149 69.957C99.0599 69.903 97.5659 69.828 95.8289 69.828C92.3429 69.828 90.5219 69.894 88.7819 70.008C88.6499 69.573 88.6049 68.169 88.7639 67.875C89.4844 67.7623 90.1977 67.6071 90.8999 67.41C92.0099 67.044 92.3309 66.54 92.3999 65.067C92.4269 64.02 92.6279 54.795 92.2709 52.605C91.9409 50.334 90.2309 47.676 86.4899 47.676C85.1009 47.676 82.8599 48.255 80.7239 49.875C80.5914 50.0252 80.5169 50.2178 80.5139 50.418V50.463C80.7659 51.645 80.7659 53.025 80.7659 55.11C80.7659 56.31 80.7659 57.561 80.7509 58.812C80.7359 61.356 80.7239 63.756 80.7659 65.571C80.7659 66.807 81.5129 67.104 82.1159 67.341C82.4429 67.413 82.7009 67.476 82.9619 67.536C83.4629 67.659 83.9849 67.785 84.7619 67.908C84.8769 68.435 84.8666 68.9817 84.7319 69.504C84.7001 69.7 84.623 69.886 84.5069 70.047C82.5689 69.981 80.5799 69.924 77.7089 69.924C76.8389 69.924 75.4199 69.96 74.1659 69.993C73.1489 70.02 72.1889 70.047 71.6429 70.05C71.4952 69.7016 71.4295 69.3239 71.4509 68.946C71.4202 68.59 71.4898 68.2325 71.6519 67.914L72.4229 67.773C73.0949 67.653 73.6769 67.551 74.2229 67.413C75.1709 67.113 75.5279 66.597 75.5969 65.388C75.7829 62.568 75.9269 54.441 75.5279 52.407C74.8499 49.143 72.9929 47.487 70.0049 47.487C68.2559 47.487 66.0449 48.33 64.2389 49.683C64.0651 49.8522 63.9283 50.0554 63.8369 50.28C63.7455 50.5046 63.7016 50.7457 63.7079 50.988C63.7079 51.957 63.7079 53.109 63.7079 54.345C63.7079 58.425 63.6809 63.504 63.7799 65.7C63.8399 66.378 64.0799 67.182 65.3489 67.476C65.6279 67.557 66.1079 67.635 66.6659 67.728C66.9869 67.782 67.3379 67.839 67.7009 67.905C67.8163 68.6234 67.7576 69.359 67.5299 70.05C66.9719 70.05 66.2849 70.014 65.4989 69.981C64.2989 69.927 62.7989 69.861 61.1039 69.861C59.0999 69.861 57.7049 69.927 56.5859 69.981C55.8329 70.017 55.1819 70.047 54.5309 70.05" fill="white"/>
<path d="M118.86 46.347C117.777 46.3245 116.712 46.6241 115.8 47.208C113.574 48.561 112.44 51.264 112.44 55.236C112.44 62.67 116.163 67.863 121.494 67.863C122.923 67.9083 124.317 67.4146 125.4 66.48C127.038 65.145 127.908 62.415 127.908 58.593C127.908 51.27 124.269 46.347 118.854 46.347M119.88 70.62C110.25 70.62 106.821 63.555 106.821 56.946C106.821 52.329 108.708 48.72 112.431 46.215C115.038 44.6006 118.032 43.7158 121.098 43.653C128.445 43.653 133.578 48.936 133.578 56.505C133.578 61.647 131.529 65.709 127.65 68.247C125.787 69.387 122.55 70.62 119.88 70.62Z" fill="white"/>
<path d="M216.9 46.347C215.815 46.3224 214.748 46.6222 213.834 47.208C211.608 48.561 210.474 51.264 210.474 55.236C210.474 62.67 214.197 67.863 219.528 67.863C220.962 67.9113 222.361 67.4175 223.446 66.48C225.084 65.145 225.951 62.415 225.951 58.593C225.951 51.27 222.315 46.347 216.9 46.347ZM217.926 70.62C208.296 70.62 204.867 63.555 204.867 56.949C204.867 52.326 206.754 48.72 210.48 46.215C213.086 44.5997 216.079 43.7148 219.144 43.653C226.491 43.653 231.624 48.939 231.624 56.502C231.624 61.65 229.575 65.709 225.696 68.244C223.833 69.387 220.596 70.62 217.926 70.62Z" fill="white"/>
<path d="M184.476 46.095C181.509 46.095 179.589 48.438 179.589 52.065C179.589 55.692 181.242 60.003 185.889 60.003C186.687 60.003 188.133 59.649 188.85 58.86C189.93 57.867 190.65 55.815 190.65 53.649C190.65 48.918 188.346 46.095 184.491 46.095M184.107 71.127C183.269 71.1179 182.443 71.3245 181.707 71.727C179.358 73.227 178.269 74.727 178.269 76.47C178.269 78.102 178.902 79.401 180.264 80.553C181.914 81.951 184.14 82.632 187.065 82.632C192.822 82.632 195.402 79.536 195.402 76.47C195.402 74.334 194.331 72.903 192.126 72.093C190.428 71.472 187.59 71.13 184.116 71.13M184.5 85.83C181.044 85.83 178.554 85.101 176.427 83.463C174.357 81.867 173.427 79.497 173.427 77.859C173.45 76.8035 173.852 75.7914 174.561 75.009C175.161 74.325 176.556 73.044 179.781 70.827C179.831 70.8058 179.874 70.7702 179.904 70.7249C179.934 70.6795 179.949 70.6264 179.949 70.572C179.95 70.5114 179.931 70.4522 179.894 70.4042C179.856 70.3563 179.804 70.3223 179.745 70.308C177.09 69.291 176.289 67.608 176.046 66.708C176.046 66.675 176.046 66.624 176.019 66.567C175.944 66.213 175.872 65.877 176.355 65.532C176.727 65.268 177.321 64.914 177.957 64.539C178.855 64.0421 179.716 63.4816 180.534 62.862C180.578 62.8148 180.611 62.7581 180.629 62.6963C180.648 62.6345 180.652 62.5693 180.642 62.5056C180.632 62.4419 180.607 62.3814 180.569 62.3288C180.532 62.2762 180.483 62.2328 180.426 62.202C176.496 60.882 174.516 57.963 174.516 53.502C174.504 52.111 174.828 50.7375 175.46 49.4982C176.092 48.2588 177.013 47.1903 178.146 46.383C179.727 45.132 183.696 43.629 186.267 43.629H186.417C189.06 43.692 190.551 44.247 192.615 45.009C193.789 45.4336 195.033 45.6311 196.281 45.591C198.468 45.591 199.425 44.898 200.247 44.091C200.381 44.4545 200.452 44.8379 200.457 45.225C200.507 46.1474 200.257 47.0612 199.743 47.829C199.296 48.45 198.243 48.9 197.28 48.9C197.181 48.9 197.085 48.9 196.98 48.885C196.474 48.8494 195.971 48.766 195.48 48.636L195.234 48.723C195.156 48.837 195.207 48.963 195.27 49.125C195.286 49.1567 195.298 49.1899 195.306 49.224C195.482 50.0247 195.601 50.8367 195.663 51.654C195.663 56.319 193.824 58.35 191.835 59.856C189.912 61.2989 187.628 62.1834 185.235 62.412C185.184 62.412 184.935 62.433 184.467 62.475C184.167 62.502 183.777 62.538 183.72 62.538H183.663C183.231 62.658 182.103 63.195 182.103 64.194C182.103 65.022 182.613 66.051 185.052 66.237L186.63 66.348C189.846 66.573 193.863 66.852 195.753 67.491C197.007 67.9319 198.09 68.7569 198.848 69.8486C199.605 70.9404 200 72.2433 199.974 73.572C199.974 77.757 196.998 81.693 192.015 84.099C189.665 85.2214 187.092 85.7988 184.488 85.788" fill="white"/>
<path d="M169.758 67.8181C168.348 67.6291 167.319 67.4371 166.104 66.8671C165.866 66.6201 165.709 66.306 165.654 65.9671C165.525 64.0021 165.525 58.2991 165.525 54.5671C165.525 51.5221 165.015 48.8671 163.725 46.9621C162.186 44.8051 160.008 43.5391 157.188 43.5391C154.689 43.5391 151.356 45.2491 148.602 47.5951C148.536 47.6581 148.113 48.0601 148.122 47.4361C148.131 46.8121 148.227 45.5461 148.287 44.7361C148.314 44.5209 148.29 44.3024 148.217 44.0982C148.144 43.894 148.024 43.7097 147.867 43.5601C146.067 44.4601 141.018 45.6601 139.149 45.8431C137.787 46.1071 137.442 47.4181 138.897 47.8711H138.918C140.083 48.1922 141.195 48.6814 142.218 49.3231C142.794 49.7671 142.731 50.4001 142.731 50.9071C142.794 55.1521 142.794 61.6801 142.602 65.2291C142.539 66.6241 142.152 67.1311 141.126 67.3861L141.222 67.3531C140.441 67.5489 139.648 67.6971 138.849 67.7971C138.528 68.1121 138.528 69.9511 138.849 70.3321C139.491 70.3321 142.749 70.1431 145.449 70.1431C149.163 70.1431 151.086 70.3321 152.049 70.3321C152.436 69.8881 152.562 68.1781 152.307 67.7971C151.42 67.7569 150.539 67.6293 149.676 67.4161C148.653 67.1641 148.395 66.6541 148.332 65.5171C148.206 62.5351 148.206 56.1991 148.206 51.8881C148.206 50.6881 148.524 50.1151 148.908 49.7881C150.189 48.6481 152.307 47.8891 154.164 47.8891C155.964 47.8891 157.164 48.4591 158.064 49.2181C159.112 50.1328 159.77 51.4149 159.9 52.8001C160.155 55.2001 160.089 60.0271 160.089 64.2001C160.089 66.4831 159.9 67.0561 159.066 67.3081C158.682 67.4971 157.656 67.6891 156.438 67.8151C156.054 68.1961 156.18 69.9691 156.438 70.3501C158.103 70.3501 160.038 70.1611 162.846 70.1611C166.371 70.1611 168.615 70.3501 169.512 70.3501C169.896 69.9061 170.025 68.2501 169.77 67.8151" fill="white"/>
</svg>
