<svg width="156" height="150" viewBox="0 0 156 150" fill="none" xmlns="http://www.w3.org/2000/svg">
<g clip-path="url(#clip0_51_166)">
<path fill-rule="evenodd" clip-rule="evenodd" d="M88.6695 3.57141C87.5805 3.57141 86.5694 3.80476 85.636 4.11587C87.6194 5.43814 88.7083 7.18821 89.2528 9.17161C89.2918 9.44384 89.3695 9.6383 89.4084 9.91052C89.4474 10.1439 89.4862 10.3772 89.4862 10.6106C89.6418 14.0329 88.5917 14.4607 87.8528 16.483C86.7249 19.0886 87.0361 21.8887 88.3972 24.1444C88.5139 24.4166 88.6695 24.7277 88.8639 24.9999C87.3861 15.1607 95.5919 13.6829 97.1086 10.6106C97.2253 7.92712 95.0086 6.13817 93.2585 4.89368C91.5862 3.88253 90.0695 3.57141 88.6695 3.57141ZM101.037 5.78816C100.881 6.68263 100.998 6.44929 100.959 6.91598C100.92 7.22709 100.92 7.616 100.881 7.92712C100.803 8.23824 100.725 8.54936 100.609 8.8605C100.531 9.17161 100.414 9.48273 100.298 9.79385C100.142 10.105 100.026 10.3772 99.87 10.6883C99.7533 10.844 99.6755 10.9994 99.5589 11.155C99.4811 11.2717 99.4032 11.3884 99.3255 11.505C99.1311 11.7773 98.9366 12.0495 98.7422 12.2828C98.5088 12.5162 98.3144 12.7884 98.0421 12.9829C98.0421 13.0218 98.0421 13.0218 98.0421 13.0218C97.8088 13.2163 97.5754 13.4496 97.3032 13.644C96.4865 14.2663 95.5532 14.733 94.6976 15.3163C94.4253 15.5108 94.1531 15.6663 93.9198 15.8997C93.6475 16.0941 93.4142 16.2886 93.1809 16.5219C92.9086 16.7553 92.7142 16.9886 92.4808 17.2608C92.2864 17.4942 92.053 17.7664 91.8975 18.0386C91.703 18.3109 91.5086 18.5831 91.353 18.8553C91.1974 19.1664 91.0808 19.4387 90.9252 19.7498C90.8085 20.0609 90.6919 20.3332 90.6141 20.6443C90.4974 20.9943 90.4196 21.3054 90.3419 21.6165C90.3029 21.7722 90.3029 21.9665 90.2641 22.1221C90.2251 22.2777 90.2251 22.4332 90.1864 22.5888C90.1864 22.8999 90.1475 23.2499 90.1475 23.561C90.1475 23.7944 90.1475 24.0277 90.1864 24.2611C90.1864 24.5722 90.2254 24.8833 90.3031 25.2333C90.342 25.5444 90.4198 25.8556 90.4976 26.1667C90.6142 26.4778 90.692 26.7889 90.8087 27.1001C90.8864 27.2945 91.0031 27.489 91.0809 27.6445L82.1361 24.1833C80.6194 23.7555 79.1416 23.3666 77.6249 23.0166C76.8082 22.8221 75.9915 22.6277 75.1748 22.4332C72.8414 21.9666 70.4691 21.6165 68.0968 21.3832C68.0191 21.3832 67.9801 21.3443 67.9023 21.3443C65.5689 21.1109 63.2744 20.9943 60.941 20.9943C59.2298 20.9943 57.5186 21.072 55.8463 21.1887C53.474 21.3443 51.1017 21.6554 48.7294 22.0443C48.1461 22.122 47.5627 22.2387 46.9793 22.3554C45.7738 22.5887 44.6071 22.861 43.4792 23.1332C42.8959 23.2888 42.3125 23.4443 41.7292 23.5999C41.1458 23.8332 40.6014 24.1055 40.0569 24.3388C39.6291 24.5333 39.2013 24.7277 38.7735 24.9222C38.6958 24.9611 38.6179 24.9611 38.5791 24.9999C38.1902 25.1943 37.8401 25.3499 37.4901 25.5444C37.3735 25.5833 37.2957 25.6221 37.2179 25.661C36.7901 25.8555 36.3623 26.0888 36.0123 26.2833C35.7401 26.3999 35.4679 26.5555 35.2345 26.6722C35.1178 26.7499 34.9623 26.8278 34.8845 26.8666C34.5345 27.0611 34.1845 27.2555 33.8733 27.45C33.5233 27.6444 33.2122 27.8389 32.94 28.0333C32.6678 28.2278 32.3955 28.3833 32.1622 28.5778C32.1232 28.6167 32.0844 28.6167 32.0455 28.6555C31.8122 28.8111 31.5399 29.0055 31.3066 29.2C31.3066 29.2 31.2676 29.2389 31.2289 29.2777C31.0344 29.4333 30.84 29.5888 30.6455 29.7444C30.5678 29.7833 30.4899 29.861 30.4122 29.9C30.2177 30.0556 30.0233 30.25 29.8288 30.4056C29.7899 30.4833 29.7122 30.5222 29.6732 30.5612C29.4399 30.7945 29.2065 30.989 28.9732 31.2223C28.9342 31.2223 28.9342 31.2613 28.8955 31.3C28.6621 31.4945 28.4288 31.7278 28.1954 31.9612C28.1565 32.0001 28.1565 32.0389 28.1177 32.0389C27.9233 32.2333 27.7288 32.4278 27.5343 32.6611C27.4566 32.7389 27.3399 32.8168 27.2621 32.8945C27.0677 33.1278 26.8343 33.3612 26.601 33.5945C26.562 33.6722 26.4843 33.7112 26.4454 33.789C26.1343 34.1001 25.862 34.4112 25.5509 34.7223C25.5119 34.7613 25.4732 34.8 25.4342 34.839C24.812 35.5001 24.1508 36.1613 23.4508 36.7446C22.7508 37.3669 22.0119 37.9502 21.273 38.4558C20.4952 39.0003 19.7562 39.4669 18.9395 39.9336C18.1617 40.3614 17.345 40.7503 16.4895 41.1003C15.6728 41.4503 14.8172 41.7615 13.9616 42.0337C12.3282 42.3837 10.6559 43.0448 9.21698 43.1615C8.90586 43.1615 8.55585 43.2392 8.24473 43.2782C7.89472 43.3559 7.5836 43.4338 7.27248 43.5115C6.96136 43.6282 6.65023 43.7449 6.33911 43.8615C6.02799 43.9782 5.71687 44.1338 5.40575 44.2893C5.13351 44.4838 4.82239 44.6393 4.55015 44.8338C4.27793 45.0282 4.00569 45.2616 3.77235 45.4949C3.50013 45.6894 3.22789 45.9616 2.99454 46.1949C2.7612 46.4672 2.52786 46.7005 2.33341 46.9727C2.13897 47.2839 1.90562 47.5561 1.75005 47.8672C1.55561 48.1395 1.36116 48.4506 1.20559 48.7617C1.04997 49.1117 0.894474 49.4228 0.777802 49.7729C0.66113 50.084 0.544459 50.434 0.427788 50.784C0.350068 51.0951 0.272165 51.4062 0.233341 51.7173C0.233341 51.7563 0.194391 51.7951 0.194391 51.834C0.116671 52.1841 0.116671 52.6507 0.077719 52.8841C0.038769 53.1563 0 53.3896 0 53.6619C0 53.8175 1.21068e-07 54.0119 0.0389502 54.1675C0.0779003 54.4397 0.116669 54.673 0.194573 54.9064C0.272293 55.1397 0.350196 55.373 0.466795 55.6064C0.466795 55.6453 0.466795 55.6453 0.466795 55.6453C0.583466 55.8787 0.739034 56.112 0.894584 56.3454C1.05021 56.5787 1.20572 56.8121 1.40017 57.0454C1.59461 57.2399 1.82796 57.4732 2.0613 57.6676C2.29464 57.901 2.52799 58.0954 2.80021 58.2899C3.73358 59.1066 3.96692 59.3788 5.17252 60.001C5.36696 60.1177 5.56143 60.1955 5.79477 60.3122C5.83373 60.3122 5.87249 60.3511 5.91144 60.3511C5.91144 60.4288 5.91144 60.4678 5.9504 60.5456C5.98935 60.8567 6.06707 61.1678 6.14485 61.4789C6.22257 61.829 6.33931 62.1401 6.45598 62.4123C6.57266 62.6457 6.65043 62.879 6.7671 63.1123C6.80605 63.1901 6.84482 63.268 6.88377 63.3068C7.0394 63.6179 7.19489 63.8902 7.35044 64.1624C7.54491 64.4346 7.73935 64.7068 7.9338 64.9791C8.12825 65.2124 8.36159 65.4846 8.59493 65.718C8.82828 65.9513 9.06162 66.1458 9.33386 66.3791C9.33386 66.3791 9.37282 66.4181 9.41158 66.4181C9.64492 66.6126 9.87827 66.807 10.1116 66.9626C10.3838 67.157 10.6561 67.3126 10.9672 67.4681C11.2394 67.6238 11.5505 67.7793 11.8617 67.8959C12.095 68.0126 12.3672 68.0904 12.6395 68.1682C12.6784 68.2072 12.7172 68.2072 12.7951 68.2459C12.9507 68.2849 13.1451 68.3236 13.3007 68.3626C13.184 70.4626 13.145 72.446 13.4563 73.1461C13.8063 73.9239 15.5175 71.5516 17.2286 68.8293C16.9953 71.5127 16.8397 74.6628 17.2286 75.5962C17.6564 76.5684 19.9898 73.535 22.0121 70.1904C49.5853 63.8124 74.7473 82.8686 77.3918 109.781C76.8863 105.581 71.7139 103.247 69.3416 103.83C68.1749 106.708 66.1915 110.403 63.0025 112.697C63.2747 110.131 63.1581 107.486 62.6136 104.919C61.758 108.497 60.0857 111.842 57.7912 114.72C54.0966 114.992 50.402 113.203 48.4575 110.52C48.3019 110.403 48.263 110.17 48.1464 110.014C48.0297 109.742 47.913 109.47 47.8352 109.197C47.7186 108.925 47.6408 108.653 47.6019 108.381C47.5629 108.108 47.5629 107.836 47.5629 107.525C47.5629 107.331 47.5629 107.136 47.5629 106.942C47.6019 106.669 47.6796 106.397 47.7574 106.125C47.8351 105.853 47.913 105.581 48.0296 105.308C48.1853 105.036 48.3019 104.764 48.4963 104.492C49.1574 102.625 49.1574 101.108 47.9519 100.214C47.7185 100.058 47.4852 99.9414 47.2129 99.8248C47.0573 99.7858 46.8629 99.7081 46.7074 99.6691C46.5907 99.6302 46.5129 99.5914 46.3962 99.5525C46.124 99.4747 45.8518 99.3968 45.5795 99.358C45.3073 99.2803 45.0351 99.2414 44.7628 99.2414C44.4906 99.2024 44.1795 99.1636 43.9073 99.1636C43.7128 99.1636 43.5184 99.2026 43.3239 99.2026C43.0128 99.2026 42.7405 99.2416 42.4683 99.3192C42.1961 99.3582 41.9239 99.397 41.6516 99.4748C41.3794 99.5526 41.1072 99.6305 40.8349 99.7471C40.5627 99.8638 40.3294 99.9804 40.0571 100.097C39.8238 100.214 39.5905 100.369 39.3182 100.486C30.2568 106.397 35.6625 120.242 41.8461 124.248C39.5127 124.676 37.1404 125.181 36.4792 125.687C36.4403 125.726 36.4015 125.765 36.4015 125.765C38.0738 126.776 39.8239 127.631 41.6517 128.37C44.1407 129.187 46.7852 129.926 47.9519 130.237V130.276C51.1798 130.937 54.4466 131.17 57.7523 130.976C74.9806 129.77 89.0978 116.664 91.6646 99.3971C91.7423 99.7471 91.8202 100.058 91.8979 100.408C92.0146 101.108 92.1701 101.847 92.2479 102.586C92.2479 102.586 92.2479 102.586 92.2479 102.625C92.3256 102.975 92.3646 103.325 92.4035 103.636C92.4035 103.714 92.4035 103.753 92.4035 103.792C92.4425 104.142 92.4812 104.492 92.4812 104.803C92.5202 105.231 92.559 105.659 92.559 106.086C92.559 106.281 92.559 106.475 92.559 106.709C92.559 106.903 92.5979 107.136 92.5979 107.331C92.5979 107.564 92.559 107.798 92.559 108.031C92.559 108.225 92.559 108.42 92.559 108.575C92.559 108.848 92.52 109.081 92.52 109.353C92.52 109.509 92.52 109.664 92.481 109.859C92.481 110.131 92.4421 110.403 92.4421 110.714C92.4031 110.831 92.4031 110.948 92.4031 111.064C92.3642 111.375 92.3254 111.648 92.2864 111.959C92.2864 112.075 92.2864 112.192 92.2475 112.309C92.2085 112.698 92.1308 113.048 92.0919 113.437V113.476V113.515C92.0142 113.865 91.9362 114.253 91.8585 114.603C91.8585 114.642 91.8585 114.681 91.8585 114.72C91.7808 115.07 91.7029 115.42 91.6252 115.77C91.6252 115.809 91.5862 115.887 91.5862 115.926C91.5085 116.276 91.4306 116.626 91.314 116.976C91.314 117.015 91.314 117.054 91.314 117.093C91.1974 117.481 91.0807 117.831 91.0029 118.181C90.964 118.22 90.964 118.259 90.964 118.259C90.8473 118.648 90.7306 119.037 90.614 119.426C90.4583 119.815 90.3417 120.165 90.1862 120.554C90.0306 120.943 89.9139 121.331 89.7584 121.681C89.6027 122.07 89.4472 122.42 89.2917 122.809H89.2527C89.097 123.159 88.9415 123.548 88.7471 123.898C88.7081 124.015 88.6694 124.093 88.6304 124.17C88.5915 124.209 88.5915 124.248 88.5527 124.287C86.0248 129.382 82.2914 133.854 77.6246 137.354C77.3134 137.549 77.0023 137.782 76.6912 138.015C76.6135 138.093 76.4967 138.132 76.419 138.21C76.1467 138.404 75.8745 138.599 75.5634 138.793L75.68 139.027H75.719C76.2634 138.949 76.8079 138.871 77.3524 138.793H77.3913C78.4025 138.638 79.4136 138.443 80.4248 138.249C80.697 138.21 81.0081 138.132 81.2803 138.054C81.4748 138.015 81.6304 137.977 81.8248 137.938C82.097 137.899 82.3693 137.821 82.6415 137.782C82.8748 137.704 83.1082 137.665 83.3415 137.588C87.2306 136.654 91.0029 135.371 94.6197 133.854C88.4362 142.293 80.1525 149.099 70.4689 153.571C74.9412 153.26 79.4136 152.521 83.7304 151.277C99.4032 146.649 112.587 136.11 120.482 121.915C118.887 130.898 115.309 139.454 110.02 146.921C113.793 144.432 117.254 141.554 120.404 138.288C129.115 129.187 134.832 117.637 136.777 105.231C138.099 111.375 138.488 117.715 137.905 123.976C165.983 84.8135 140.238 44.2121 129.465 33.5172C129.426 33.4395 129.388 33.4006 129.388 33.3228C129.349 33.3617 129.349 33.3617 129.349 33.4005C129.349 33.3616 129.349 33.3616 129.31 33.3228C129.31 33.7895 129.271 34.2561 129.232 34.7228C129.115 35.6173 128.999 36.4729 128.843 37.3285C128.649 38.1841 128.415 39.0396 128.182 39.8952C127.91 40.7119 127.599 41.5675 127.249 42.3842C126.899 43.162 126.51 43.9787 126.082 44.7565C125.654 45.4954 125.187 46.2732 124.682 46.9733C124.176 47.7122 123.632 48.4122 123.087 49.0733C122.504 49.7734 121.882 50.3956 121.259 51.0178C120.871 51.3679 120.521 51.679 120.132 51.9901C119.821 52.2623 119.548 52.4957 119.237 52.7679C118.537 53.3124 117.837 53.8179 117.059 54.2846C116.32 54.7513 115.543 55.218 114.765 55.6069C113.948 55.9958 113.131 56.3458 112.315 56.6958C111.498 57.0069 110.642 57.2792 109.787 57.5125C108.931 57.7458 108.037 57.9403 107.181 58.0959C106.287 58.2515 105.392 58.3292 104.537 58.407C103.914 58.4459 103.292 58.4847 102.67 58.4847C101.775 58.4847 100.881 58.407 100.025 58.3291C99.1309 58.2514 98.2365 58.1346 97.3809 57.9402C96.4864 57.7846 95.6308 57.5513 94.7752 57.2791H94.7363C95.5919 57.2013 96.4474 57.1234 97.303 56.9679C98.1975 56.8123 99.0531 56.6179 99.9087 56.3846C100.764 56.1512 101.62 55.879 102.437 55.5679C103.292 55.2567 104.109 54.8679 104.887 54.4789C105.703 54.09 106.442 53.6623 107.22 53.1956C107.959 52.69 108.698 52.1844 109.398 51.64C110.098 51.0955 110.759 50.5122 111.381 49.8899C112.042 49.3065 112.626 48.6454 113.209 47.9843C113.792 47.2843 114.337 46.5842 114.843 45.8842C114.92 45.7675 114.998 45.612 115.076 45.4953C115.465 44.8731 115.854 44.2508 116.204 43.6286C116.631 42.8508 117.02 42.0729 117.37 41.2563C117.72 40.4396 118.032 39.6229 118.304 38.7673C118.576 37.9506 118.77 37.095 118.965 36.2394C119.121 35.345 119.276 34.4894 119.354 33.6338C119.432 32.7393 119.509 31.8448 119.509 30.9893C119.509 30.367 119.47 29.7448 119.432 29.1225C119.354 28.228 119.237 27.3725 119.121 26.5169C118.965 25.6224 118.771 24.7668 118.537 23.9112C118.265 23.0945 117.993 22.2389 117.682 21.4223C117.371 20.6056 116.982 19.7889 116.593 19.011C116.165 18.2332 115.737 17.4554 115.27 16.7165C114.765 15.9776 114.259 15.2776 113.715 14.5776C113.131 13.9164 112.548 13.2553 111.926 12.5942C111.615 12.283 111.265 11.933 110.915 11.6219C109.165 10.2608 107.337 8.97736 105.509 7.81067C105.237 7.65505 105.003 7.53843 104.731 7.42175C103.448 6.60507 102.242 6.17705 101.037 5.78816Z" fill="white"/>
</g>
<defs>
<clipPath id="clip0_51_166">
<rect width="155.28" height="150" fill="white"/>
</clipPath>
</defs>
</svg>
