<svg width="245" height="150" viewBox="0 0 245 150" fill="none" xmlns="http://www.w3.org/2000/svg">
<g clip-path="url(#clip0_51_140)">
<path d="M121.054 150.001C120.246 150.001 119.443 149.789 118.734 149.38L111.35 145.009C110.248 144.392 110.786 144.174 111.149 144.048C112.62 143.533 112.918 143.417 114.488 142.526C114.653 142.432 114.869 142.465 115.038 142.564L120.71 145.931C120.915 146.041 121.206 146.041 121.396 145.931L143.514 133.164C143.719 133.047 143.852 132.809 143.852 132.566V107.042C143.852 106.788 143.719 106.561 143.51 106.433L121.4 93.6771C121.195 93.5553 120.924 93.5553 120.719 93.6771L98.6143 106.433C98.4 106.555 98.2638 106.793 98.2638 107.037V132.56C98.2638 132.804 98.3967 133.036 98.6071 133.152L104.664 136.652C107.953 138.296 109.962 136.358 109.962 134.409V109.218C109.962 108.858 110.245 108.581 110.605 108.581H113.406C113.755 108.581 114.043 108.858 114.043 109.218V134.42C114.043 138.805 111.651 141.324 107.493 141.324C106.214 141.324 105.207 141.324 102.394 139.94L96.5918 136.596C95.1578 135.766 94.272 134.215 94.272 132.56V107.037C94.272 105.376 95.1578 103.826 96.5918 103.006L118.732 90.2334C120.133 89.4417 121.993 89.4417 123.383 90.2334L145.496 103.012C146.924 103.837 147.816 105.381 147.816 107.042V132.566C147.816 134.221 146.924 135.766 145.496 136.596L123.383 149.369C122.674 149.779 121.871 149.989 121.052 149.989" fill="white"/>
<path d="M127.886 132.413C118.208 132.413 116.179 127.971 116.179 124.245C116.179 123.89 116.465 123.608 116.82 123.608H119.677C119.992 123.608 120.258 123.838 120.308 124.15C120.74 127.061 122.024 128.529 127.876 128.529C132.538 128.529 134.52 127.476 134.52 125.004C134.52 123.581 133.955 122.523 126.714 121.815C120.657 121.217 116.914 119.883 116.914 115.038C116.914 110.576 120.679 107.918 126.985 107.918C134.066 107.918 137.576 110.376 138.019 115.658C138.036 115.841 137.969 116.018 137.847 116.151C137.726 116.278 137.554 116.356 137.377 116.356H134.503C134.204 116.356 133.944 116.145 133.883 115.858C133.191 112.796 131.519 111.816 126.974 111.816C121.886 111.816 121.293 113.588 121.293 114.916C121.293 116.527 121.991 116.998 128.856 117.906C135.655 118.808 138.883 120.082 138.883 124.86C138.883 129.677 134.863 132.439 127.854 132.439M154.795 105.371H155.537C156.146 105.371 156.262 104.945 156.262 104.696C156.262 104.043 155.813 104.043 155.564 104.043H154.8L154.795 105.371ZM153.892 103.279H155.537C156.101 103.279 157.209 103.279 157.209 104.541C157.209 105.421 156.644 105.604 156.306 105.715C156.965 105.759 157.009 106.191 157.098 106.8C157.142 107.182 157.214 107.841 157.347 108.062H156.334C156.306 107.841 156.151 106.623 156.151 106.556C156.085 106.285 155.991 106.152 155.653 106.152H154.817V108.068H153.892V103.279ZM151.916 105.659C151.916 107.641 153.516 109.247 155.481 109.247C157.463 109.247 159.063 107.608 159.063 105.659C159.063 103.672 157.441 102.094 155.476 102.094C153.538 102.094 151.91 103.65 151.91 105.654M159.75 105.67C159.75 108.018 157.829 109.933 155.487 109.933C153.161 109.933 151.224 108.04 151.224 105.67C151.224 103.256 153.206 101.407 155.487 101.407C157.784 101.407 159.744 103.262 159.744 105.67" fill="white"/>
<path fill-rule="evenodd" clip-rule="evenodd" d="M52.5619 50.1329C52.5619 49.1142 52.0248 48.1786 51.1456 47.672L27.6952 34.1795C27.2993 33.947 26.8559 33.8252 26.4063 33.8086H26.1638C25.7142 33.8252 25.2708 33.947 24.8683 34.1795L1.41894 47.672C0.54528 48.1813 0.000488281 49.117 0.000488281 50.1357L0.0519778 86.4773C0.0519778 86.9812 0.312194 87.4518 0.755114 87.7009C1.18696 87.9666 1.72954 87.9666 2.16139 87.7009L16.1023 79.7173C16.9826 79.1935 17.5197 78.2678 17.5197 77.259V60.2814C17.5197 59.2682 18.0567 58.3325 18.9342 57.8287L24.8694 54.4104C25.3101 54.1558 25.794 54.0295 26.2867 54.0295C26.7717 54.0295 27.2667 54.1547 27.6952 54.4099L33.6276 57.827C34.5057 58.3308 35.0449 59.2665 35.0449 60.2797V77.2563C35.0449 78.2639 35.5891 79.1941 36.465 79.7145L50.3971 87.6926C50.8345 87.9528 51.3787 87.9528 51.8144 87.6926C52.2441 87.4435 52.5165 86.9728 52.5165 86.469L52.5619 50.1329ZM163.219 69.0545C163.219 69.3075 163.084 69.5417 162.865 69.6668L154.81 74.3098C154.591 74.4354 154.321 74.4354 154.103 74.3098L146.047 69.6668C145.826 69.5412 145.693 69.307 145.693 69.0545V59.7554C145.693 59.5018 145.826 59.2682 146.042 59.1408L154.092 54.4902C154.313 54.3628 154.585 54.3628 154.806 54.4902L162.862 59.1408C163.083 59.2682 163.216 59.5018 163.216 59.7554L163.219 69.0545ZM165.395 0.179263C164.955 -0.0654506 164.42 -0.0588068 163.986 0.194212C163.554 0.448891 163.288 0.913957 163.288 1.41778V37.4051C163.288 37.7594 163.099 38.0861 162.793 38.2632C162.488 38.4404 162.109 38.4404 161.802 38.2632L155.927 34.8799C155.053 34.3738 153.975 34.3738 153.097 34.8799L129.639 48.4183C128.762 48.9221 128.222 49.8578 128.222 50.8654V77.95C128.222 78.9632 128.762 79.8933 129.639 80.4027L153.097 93.9505C153.973 94.4543 155.051 94.4543 155.93 93.9505L179.388 80.3971C180.263 79.8878 180.806 78.9577 180.806 77.9445V10.4434C180.806 9.41582 180.246 8.47073 179.349 7.96857L165.395 0.179263ZM243.511 59.5107C244.382 59.0046 244.919 58.0701 244.919 57.0624V50.4983C244.919 49.4885 244.382 48.5567 243.509 48.0484L220.2 34.5172C219.32 34.0079 218.24 34.0079 217.36 34.5172L193.907 48.054C193.027 48.5633 192.49 49.4935 192.49 50.5067V77.5802C192.49 78.5989 193.038 79.5401 193.918 80.0439L217.221 93.326C218.08 93.8187 219.132 93.8243 220.001 93.3426L234.097 85.5084C234.54 85.2593 234.822 84.7887 234.822 84.2793C234.822 83.77 234.551 83.2938 234.108 83.0447L210.511 69.5024C210.068 69.2533 209.797 68.7827 209.797 68.2788V59.7858C209.797 59.2787 210.063 58.8114 210.506 58.5589L217.847 54.3235C218.284 54.0688 218.821 54.0688 219.259 54.3235L226.606 58.5589C227.043 58.8081 227.314 59.2787 227.314 59.7825V66.4595C227.314 66.9634 227.586 67.434 228.023 67.6886C228.461 67.9378 229.003 67.9378 229.44 67.6831L243.511 59.5107Z" fill="white"/>
<path fill-rule="evenodd" clip-rule="evenodd" d="M218.436 58.244C218.602 58.146 218.811 58.146 218.979 58.244L223.48 60.8407C223.648 60.9381 223.751 61.1175 223.751 61.3113V66.51C223.751 66.7038 223.648 66.8832 223.48 66.9806L218.979 69.5773C218.811 69.6753 218.602 69.6753 218.436 69.5773L213.938 66.9806C213.766 66.8832 213.661 66.7038 213.661 66.51V61.3113C213.661 61.1175 213.761 60.9381 213.932 60.8407L218.436 58.244Z" fill="white"/>
<mask id="mask0_51_140" style="mask-type:luminance" maskUnits="userSpaceOnUse" x="64" y="34" width="53" height="60">
<path d="M88.9854 34.6525L65.6601 48.1156C64.7864 48.6194 64.2505 49.5496 64.2505 50.555V77.5001C64.2505 78.506 64.7864 79.4356 65.6601 79.9394L88.987 93.4131C89.859 93.9152 90.9342 93.9152 91.8051 93.4131L115.128 79.9394C115.997 79.4356 116.534 78.5055 116.534 77.5001V50.555C116.534 49.5496 115.997 48.6194 115.123 48.1156L91.8029 34.6525C91.3655 34.4017 90.8783 34.276 90.3911 34.276C89.9039 34.276 89.4167 34.4017 88.9793 34.6525" fill="white"/>
</mask>
<g mask="url(#mask0_51_140)">
<path d="M140.106 45.8296L74.3789 13.6127L40.6782 82.3617L106.403 114.58L140.106 45.8296Z" fill="white"/>
</g>
<mask id="mask1_51_140" style="mask-type:luminance" maskUnits="userSpaceOnUse" x="64" y="34" width="52" height="60">
<path d="M64.8281 79.2108C65.0512 79.5004 65.3303 79.7512 65.6586 79.9394L85.6675 91.4969L89.0005 93.4125C89.4988 93.7004 90.0668 93.8222 90.6249 93.7807C90.811 93.7658 90.997 93.7309 91.1786 93.6794L115.779 48.6344C115.591 48.4295 115.371 48.2579 115.124 48.1139L99.851 39.2943L91.7776 34.6491C91.5484 34.5163 91.2998 34.4222 91.0468 34.3557L64.8281 79.2108Z" fill="white"/>
</mask>
<g mask="url(#mask1_51_140)">
<path d="M36.4102 55.3585L82.8199 118.172L144.198 72.8245L97.7851 10.0128L36.4102 55.3585Z" fill="white"/>
</g>
<mask id="mask2_51_140" style="mask-type:luminance" maskUnits="userSpaceOnUse" x="65" y="34" width="52" height="60">
<path d="M90.1126 34.2914C89.7212 34.3302 89.3386 34.452 88.9859 34.6524L65.7271 48.0767L90.8074 93.7585C91.1562 93.7086 91.4995 93.5924 91.8095 93.413L115.135 79.9393C115.855 79.5219 116.347 78.8154 116.497 78.0148L90.9292 34.3374C90.741 34.3003 90.5527 34.2809 90.359 34.2809C90.2815 34.2809 90.2039 34.2848 90.1264 34.292" fill="white"/>
</mask>
<g mask="url(#mask2_51_140)">
<path d="M65.7266 34.2809V93.7596H116.487V34.2809H65.7266Z" fill="white"/>
</g>
</g>
<defs>
<clipPath id="clip0_51_140">
<rect width="244.919" height="150" fill="white"/>
</clipPath>
</defs>
</svg>
