<svg width="146" height="150" viewBox="0 0 146 150" fill="none" xmlns="http://www.w3.org/2000/svg">
<path d="M108.852 109.196C109.806 101.247 109.52 100.082 115.44 101.369L116.943 101.501C121.496 101.709 127.451 100.769 130.95 99.1439C138.481 95.6494 142.947 89.8148 135.52 91.3479C118.581 94.8424 117.416 89.1066 117.416 89.1066C135.304 62.5666 142.781 28.8766 136.327 20.63C118.723 -1.86381 88.2508 8.77299 87.7409 9.04916L87.5785 9.07914C84.2315 8.38468 80.4858 7.96975 76.2779 7.90172C68.6123 7.77576 62.7956 9.91134 58.3833 13.258C58.3833 13.258 4.02294 -9.13777 6.55189 41.423C7.08974 52.1787 21.9691 122.81 39.7155 101.476C46.2017 93.6748 52.47 87.0787 52.47 87.0787C55.5826 89.1466 59.3092 90.2015 63.2176 89.8226L63.5197 89.5649C63.4251 90.5335 63.4668 91.4809 63.6406 92.6024C59.0697 97.7105 60.4128 98.6074 51.2727 100.489C42.0255 102.395 47.4582 105.788 51.0043 106.674C55.3044 107.75 65.2521 109.273 71.9755 99.8633L71.7077 100.937C73.5011 102.372 73.3799 111.249 73.6341 117.592C73.8888 123.935 74.3134 129.854 75.6064 133.344C76.8993 136.833 78.425 145.822 90.4372 143.247C100.477 141.096 108.152 138 108.852 109.196Z" fill="white" stroke="white" stroke-width="2"/>
<path d="M135.522 91.3472C118.581 94.8417 117.416 89.1059 117.416 89.1059C135.303 62.5642 142.781 28.8736 136.328 20.628C118.724 -1.86449 88.2505 8.77299 87.7419 9.04916L87.5782 9.07846C84.2312 8.38366 80.4855 7.96975 76.2756 7.90104C68.61 7.77542 62.7953 9.91066 58.383 13.2567C58.383 13.2567 4.02161 -9.13811 6.54989 41.4223C7.08774 52.1787 21.9667 122.81 39.7138 101.476C46.2004 93.6748 52.4677 87.0787 52.4677 87.0787C55.5806 89.1466 59.3072 90.2015 63.2139 89.8226L63.5174 89.5649C63.4231 90.5335 63.4662 91.4809 63.639 92.6024C59.067 97.7105 60.4105 98.6074 51.2711 100.489C42.0232 102.395 47.4559 105.788 51.003 106.674C55.3031 107.75 65.2515 109.273 71.9735 99.8632L71.7054 100.937C73.4968 102.372 74.7547 110.27 74.5438 117.429C74.333 124.589 74.1922 129.504 75.6037 133.344C77.0152 137.183 78.422 145.822 90.4366 143.247C100.476 141.096 105.678 135.521 106.402 126.221C106.916 119.61 108.078 120.587 108.151 114.676L109.084 111.878C110.159 102.915 109.254 100.024 115.439 101.369L116.943 101.501C121.495 101.708 127.453 100.769 130.95 99.1432C138.48 95.6487 142.946 89.8141 135.521 91.3472H135.522Z" fill="white"/>
</svg>
