<svg width="167" height="150" viewBox="0 0 167 150" fill="none" xmlns="http://www.w3.org/2000/svg">
<g clip-path="url(#clip0_51_160)">
<path d="M83.3335 90.873C92.0999 90.873 99.2065 83.7664 99.2065 75C99.2065 66.2335 92.0999 59.127 83.3335 59.127C74.567 59.127 67.4604 66.2335 67.4604 75C67.4604 83.7664 74.567 90.873 83.3335 90.873Z" fill="white"/>
<path d="M83.3333 110.714C127.165 110.714 162.698 94.7244 162.698 74.9999C162.698 55.2755 127.165 39.2856 83.3333 39.2856C39.5012 39.2856 3.96826 55.2755 3.96826 74.9999C3.96826 94.7244 39.5012 110.714 83.3333 110.714Z" stroke="white" stroke-width="2"/>
<path d="M52.4037 92.8571C74.3197 130.817 105.934 153.594 123.016 143.732C140.098 133.87 136.179 95.1026 114.263 57.1428C92.3466 19.1831 60.7325 -3.59444 43.6506 6.26779C26.5687 16.13 30.4876 54.8974 52.4037 92.8571Z" stroke="white" stroke-width="2"/>
<path d="M52.4038 57.1428C30.4878 95.1025 26.5689 133.87 43.6508 143.732C60.7326 153.594 92.3467 130.817 114.263 92.8571C136.179 54.8973 140.098 16.13 123.016 6.26773C105.934 -3.59449 74.3199 19.183 52.4038 57.1428Z" stroke="white" stroke-width="2"/>
</g>
<defs>
<clipPath id="clip0_51_160">
<rect width="166.667" height="150" fill="white"/>
</clipPath>
</defs>
</svg>
